HIERARCHY
ROOT Root
{
  OFFSET 0.0 0.0 0.0
  CHANNELS 6 Xposition Yposition Zposition Zrotation Yrotation Xrotation
  JOINT Hips
  {
    OFFSET 0.0 100.0 0.0
    CHANNELS 6 Xposition Yposition Zposition Zrotation Yrotation Xrotation
    JOINT Spine1
    {
      OFFSET 5.003913 -0.037094 -0.013727
      CHANNELS 3 Zrotation Yrotation Xrotation
      JOINT Spine2
      {
        OFFSET 7.125363 -1e-06 0.0
        CHANNELS 3 Zrotation Yrotation Xrotation
        JOINT Chest
        {
          OFFSET 7.594027 1e-06 0.0
          CHANNELS 3 Zrotation Yrotation Xrotation
          JOINT Neck1
          {
            OFFSET 26.313086 -0.460272 -0.181672
            CHANNELS 3 Zrotation Yrotation Xrotation
            JOINT Neck2
            {
              OFFSET 8.045911 0.0 0.0
              CHANNELS 3 Zrotation Yrotation Xrotation
              JOINT Head
              {
                OFFSET 6.432774 0.0 0.0
                CHANNELS 3 Zrotation Yrotation Xrotation
                JOINT HeadEnd
                {
                  OFFSET 16.169773 0.06451 0.00362
                  CHANNELS 3 Zrotation Yrotation Xrotation
                }
                JOINT Jaw
                {
                  OFFSET 0.108741 3.12938 0.002639
                  CHANNELS 3 Zrotation Yrotation Xrotation
                }
                JOINT LeftEye
                {
                  OFFSET 4.45173 8.166359 3.206392
                  CHANNELS 3 Zrotation Yrotation Xrotation
                }
                JOINT RightEye
                {
                  OFFSET 4.436895 8.135758 -3.222429
                  CHANNELS 3 Zrotation Yrotation Xrotation
                }
              }
            }
          }
          JOINT LeftShoulder
          {
            OFFSET 23.218927 5.195579 1.621656
            CHANNELS 3 Zrotation Yrotation Xrotation
            JOINT LeftArm
            {
              OFFSET 15.902118 2e-06 -2e-06
              CHANNELS 3 Zrotation Yrotation Xrotation
              JOINT LeftForeArm
              {
                OFFSET 28.739307 0.0 -1e-06
                CHANNELS 3 Zrotation Yrotation Xrotation
                JOINT LeftHand
                {
                  OFFSET 27.093981 -4e-06 0.0
                  CHANNELS 3 Zrotation Yrotation Xrotation
                  JOINT LeftHandThumb1
                  {
                    OFFSET 2.276781 3.380274 0.83384
                    CHANNELS 3 Zrotation Yrotation Xrotation
                    JOINT LeftHandThumb2
                    {
                      OFFSET 4.705309 -1e-06 -1e-06
                      CHANNELS 3 Zrotation Yrotation Xrotation
                      JOINT LeftHandThumb3
                      {
                        OFFSET 2.798515 0.0 3e-06
                        CHANNELS 3 Zrotation Yrotation Xrotation
                        JOINT LeftHandThumbEnd
                        {
                          OFFSET 3.180793 4e-06 -4e-06
                          CHANNELS 3 Zrotation Yrotation Xrotation
                        }
                      }
                    }
                  }
                  JOINT LeftHandIndex1
                  {
                    OFFSET 3.247786 2.352677 0.137192
                    CHANNELS 3 Zrotation Yrotation Xrotation
                    JOINT LeftHandIndex2
                    {
                      OFFSET 6.367095 1e-06 0.0
                      CHANNELS 3 Zrotation Yrotation Xrotation
                      JOINT LeftHandIndex3
                      {
                        OFFSET 3.662364 0.0 0.0
                        CHANNELS 3 Zrotation Yrotation Xrotation
                        JOINT LeftHandIndex4
                        {
                          OFFSET 2.329242 4e-06 -4e-06
                          CHANNELS 3 Zrotation Yrotation Xrotation
                          JOINT LeftHandIndexEnd
                          {
                            OFFSET 2.767823 1e-06 0.0
                            CHANNELS 3 Zrotation Yrotation Xrotation
                          }
                        }
                      }
                    }
                  }
                  JOINT LeftHandMiddle1
                  {
                    OFFSET 3.163612 0.945023 -0.406112
                    CHANNELS 3 Zrotation Yrotation Xrotation
                    JOINT LeftHandMiddle2
                    {
                      OFFSET 6.276789 3e-06 0.0
                      CHANNELS 3 Zrotation Yrotation Xrotation
                      JOINT LeftHandMiddle3
                      {
                        OFFSET 4.35652 -1e-06 4e-06
                        CHANNELS 3 Zrotation Yrotation Xrotation
                        JOINT LeftHandMiddle4
                        {
                          OFFSET 2.996877 0.0 8e-06
                          CHANNELS 3 Zrotation Yrotation Xrotation
                          JOINT LeftHandMiddleEnd
                          {
                            OFFSET 2.323256 3e-06 -4e-06
                            CHANNELS 3 Zrotation Yrotation Xrotation
                          }
                        }
                      }
                    }
                  }
                  JOINT LeftHandRing1
                  {
                    OFFSET 2.882606 -0.309162 0.107445
                    CHANNELS 3 Zrotation Yrotation Xrotation
                    JOINT LeftHandRing2
                    {
                      OFFSET 6.033198 0.0 4e-06
                      CHANNELS 3 Zrotation Yrotation Xrotation
                      JOINT LeftHandRing3
                      {
                        OFFSET 4.350578 3e-06 0.0
                        CHANNELS 3 Zrotation Yrotation Xrotation
                        JOINT LeftHandRing4
                        {
                          OFFSET 2.651321 2e-06 -7e-06
                          CHANNELS 3 Zrotation Yrotation Xrotation
                          JOINT LeftHandRingEnd
                          {
                            OFFSET 1.937663 1e-06 -4e-06
                            CHANNELS 3 Zrotation Yrotation Xrotation
                          }
                        }
                      }
                    }
                  }
                  JOINT LeftHandPinky1
                  {
                    OFFSET 2.865315 -1.525436 0.575687
                    CHANNELS 3 Zrotation Yrotation Xrotation
                    JOINT LeftHandPinky2
                    {
                      OFFSET 5.54936 1e-06 -8e-06
                      CHANNELS 3 Zrotation Yrotation Xrotation
                      JOINT LeftHandPinky3
                      {
                        OFFSET 3.070974 0.0 -4e-06
                        CHANNELS 3 Zrotation Yrotation Xrotation
                        JOINT LeftHandPinky4
                        {
                          OFFSET 1.549672 1e-06 0.0
                          CHANNELS 3 Zrotation Yrotation Xrotation
                          JOINT LeftHandPinkyEnd
                          {
                            OFFSET 1.952123 0.0 0.0
                            CHANNELS 3 Zrotation Yrotation Xrotation
                          }
                        }
                      }
                    }
                  }
                }
              }
            }
          }
          JOINT RightShoulder
          {
            OFFSET 23.161716 5.296122 -1.380114
            CHANNELS 3 Zrotation Yrotation Xrotation
            JOINT RightArm
            {
              OFFSET -16.027195 -2e-06 1.1e-05
              CHANNELS 3 Zrotation Yrotation Xrotation
              JOINT RightForeArm
              {
                OFFSET -28.736639 4e-06 2e-06
                CHANNELS 3 Zrotation Yrotation Xrotation
                JOINT RightHand
                {
                  OFFSET -27.133619 6e-06 0.0
                  CHANNELS 3 Zrotation Yrotation Xrotation
                  JOINT RightHandThumb1
                  {
                    OFFSET -2.274328 -3.351035 -0.83067
                    CHANNELS 3 Zrotation Yrotation Xrotation
                    JOINT RightHandThumb2
                    {
                      OFFSET -4.703594 -3e-06 2e-06
                      CHANNELS 3 Zrotation Yrotation Xrotation
                      JOINT RightHandThumb3
                      {
                        OFFSET -2.794935 -4e-06 -3e-06
                        CHANNELS 3 Zrotation Yrotation Xrotation
                        JOINT RightHandThumbEnd
                        {
                          OFFSET -3.183852 4e-06 1e-06
                          CHANNELS 3 Zrotation Yrotation Xrotation
                        }
                      }
                    }
                  }
                  JOINT RightHandIndex1
                  {
                    OFFSET -3.253496 -2.33755 -0.127667
                    CHANNELS 3 Zrotation Yrotation Xrotation
                    JOINT RightHandIndex2
                    {
                      OFFSET -6.344434 0.0 0.0
                      CHANNELS 3 Zrotation Yrotation Xrotation
                      JOINT RightHandIndex3
                      {
                        OFFSET -3.654871 0.0 -8e-06
                        CHANNELS 3 Zrotation Yrotation Xrotation
                        JOINT RightHandIndex4
                        {
                          OFFSET -2.327586 -1e-06 0.0
                          CHANNELS 3 Zrotation Yrotation Xrotation
                          JOINT RightHandIndexEnd
                          {
                            OFFSET -2.770001 3e-06 8e-06
                            CHANNELS 3 Zrotation Yrotation Xrotation
                          }
                        }
                      }
                    }
                  }
                  JOINT RightHandMiddle1
                  {
                    OFFSET -3.168223 -0.944764 0.411762
                    CHANNELS 3 Zrotation Yrotation Xrotation
                    JOINT RightHandMiddle2
                    {
                      OFFSET -6.266691 -1e-06 -4e-06
                      CHANNELS 3 Zrotation Yrotation Xrotation
                      JOINT RightHandMiddle3
                      {
                        OFFSET -4.348901 0.0 0.0
                        CHANNELS 3 Zrotation Yrotation Xrotation
                        JOINT RightHandMiddle4
                        {
                          OFFSET -3.00024 2e-06 -4e-06
                          CHANNELS 3 Zrotation Yrotation Xrotation
                          JOINT RightHandMiddleEnd
                          {
                            OFFSET -2.321477 -4e-06 -4e-06
                            CHANNELS 3 Zrotation Yrotation Xrotation
                          }
                        }
                      }
                    }
                  }
                  JOINT RightHandRing1
                  {
                    OFFSET -2.885654 0.293261 -0.119232
                    CHANNELS 3 Zrotation Yrotation Xrotation
                    JOINT RightHandRing2
                    {
                      OFFSET -6.032835 -1e-06 -4e-06
                      CHANNELS 3 Zrotation Yrotation Xrotation
                      JOINT RightHandRing3
                      {
                        OFFSET -4.33881 0.0 -4e-06
                        CHANNELS 3 Zrotation Yrotation Xrotation
                        JOINT RightHandRing4
                        {
                          OFFSET -2.654903 -4e-06 -4e-06
                          CHANNELS 3 Zrotation Yrotation Xrotation
                          JOINT RightHandRingEnd
                          {
                            OFFSET -1.935122 0.0 4e-06
                            CHANNELS 3 Zrotation Yrotation Xrotation
                          }
                        }
                      }
                    }
                  }
                  JOINT RightHandPinky1
                  {
                    OFFSET -2.866241 1.503904 -0.60527
                    CHANNELS 3 Zrotation Yrotation Xrotation
                    JOINT RightHandPinky2
                    {
                      OFFSET -5.553177 -2e-06 0.0
                      CHANNELS 3 Zrotation Yrotation Xrotation
                      JOINT RightHandPinky3
                      {
                        OFFSET -3.062664 -1e-06 -4e-06
                        CHANNELS 3 Zrotation Yrotation Xrotation
                        JOINT RightHandPinky4
                        {
                          OFFSET -1.546529 2e-06 4e-06
                          CHANNELS 3 Zrotation Yrotation Xrotation
                          JOINT RightHandPinkyEnd
                          {
                            OFFSET -1.952341 0.0 -4e-06
                            CHANNELS 3 Zrotation Yrotation Xrotation
                          }
                        }
                      }
                    }
                  }
                }
              }
            }
          }
        }
      }
    }
    JOINT LeftLeg
    {
      OFFSET -8.443107 2.567604 10.043214
      CHANNELS 3 Zrotation Yrotation Xrotation
      JOINT LeftShin
      {
        OFFSET 43.229198 1e-06 -1e-06
        CHANNELS 3 Zrotation Yrotation Xrotation
        JOINT LeftFoot
        {
          OFFSET 42.298611 1e-06 1e-06
          CHANNELS 3 Zrotation Yrotation Xrotation
          JOINT LeftToeBase
          {
            OFFSET 14.165858 1e-06 0.0
            CHANNELS 3 Zrotation Yrotation Xrotation
            JOINT LeftToeEnd
            {
              OFFSET 6.7141 -0.234461 0.0
              CHANNELS 3 Zrotation Yrotation Xrotation
            }
          }
        }
      }
    }
    JOINT RightLeg
    {
      OFFSET -8.303923 2.592729 -10.047278
      CHANNELS 3 Zrotation Yrotation Xrotation
      JOINT RightShin
      {
        OFFSET -43.369682 0.0 1e-06
        CHANNELS 3 Zrotation Yrotation Xrotation
        JOINT RightFoot
        {
          OFFSET -42.260784 4e-06 2e-06
          CHANNELS 3 Zrotation Yrotation Xrotation
          JOINT RightToeBase
          {
            OFFSET -14.222245 -2e-06 -1e-06
            CHANNELS 3 Zrotation Yrotation Xrotation
            JOINT RightToeEnd
            {
              OFFSET -6.660062 0.232574 -2e-06
              CHANNELS 3 Zrotation Yrotation Xrotation
            }
          }
        }
      }
    }
  }
}
MOTION
Frames: 4
Frame Time: 0.03333333333333333
0.0 0.0 0.0 0.0 -0.0 0.0 0.286557 99.406082 -0.612916 89.316963 2.357755 91.427551 -2.825201 0.584822 0.099824 -11.951168 -0.475207 0.095592 16.455889 -0.991449 -2.653954 20.450346 -1.733267 2.458471 -2.573647 -0.542446 0.573382 -33.34819 0.965976 -1.793383 5e-06 -0.0 0.0 0.076684 -0.000745 -0.021355 0.172512 -0.03632 -0.035548 0.153505 0.031453 -0.000308 -141.70639 -75.415894 158.994797 28.108294 -40.142883 -42.601818 72.329857 1.23555 -0.671773 -9.198533 14.198381 -91.444038 17.636635 -26.322744 52.411213 -19.466656 -14.395597 29.410393 -0.0 -8.774821 -2e-06 16.201229 -17.604748 6.055269 -0.609773 -1.795651 -3.889329 -4.80709 -11.046812 -2.93785 2e-06 -20.976021 3e-06 -5.019975 -25.033558 -4.031876 4e-06 -2e-06 -1e-06 -10.634535 -5.68697 -3.56559 10.573271 -17.922951 -3.113899 1e-06 -13.821209 2e-06 -0.501782 -31.181501 -4.027014 -11.045994 -59.102837 6.93406 -13.982709 -7.150197 -2.875044 13.772728 -8.401491 -3.218241 0.347724 -34.211555 0.771659 -0.963033 -17.733368 2.621024 -0.0 1e-06 -1e-06 -17.34642 -20.095217 -4.201782 21.757555 -1.638373 3.866429 -1e-06 -6.338825 2e-06 -1.697587 -22.591745 -6.19401 -3e-06 -2e-06 -1e-06 48.861076 -81.992073 149.049347 32.627922 -48.727596 -61.918644 72.136497 -1.521855 0.274181 -3.577593 20.840992 -87.214554 22.18211 -20.375898 49.933323 -16.701811 -16.743528 28.476532 -3e-06 -12.690599 -3e-06 15.043102 -17.466284 4.050072 -0.105922 -1.513856 -4.275881 -5.039038 -5.612871 -2.953555 7e-06 -11.02052 -3e-06 -6.111296 -15.89533 -3.84047 -0.0 1e-06 1e-06 -10.283372 -5.680288 -4.341839 11.028292 -11.302403 -2.372633 -1.384269 -14.238576 -6.320122 -0.625438 -26.924181 -3.827601 -5.09305 -49.659588 -2.167755 -13.708524 -7.363475 -3.720938 18.141146 -14.052739 -3.242672 6e-06 -18.787266 -0.0 -0.429712 -8.456043 2.555501 -1e-06 0.0 0.0 -15.923536 -20.094482 -5.473584 30.41921 -7.190827 1.735928 1e-06 -8.162922 -1e-06 -1.861903 -22.861465 -6.16794 -1e-06 -2e-06 -2e-06 173.190933 -5.634088 -10.075636 21.532612 0.005287 0.063351 -80.969116 4.170846 -2.898164 -6.942382 1.577946 2.120161 -0.999998 1e-06 0.0 -3.855703 -3.569183 -10.754474 19.014256 -0.050877 0.065329 -80.861649 -4.316196 -6.1954 -7.444226 0.703164 1.633442 -1.000002 1e-06 -0.0 
0.0 0.0 0.0 0.0 -0.0 0.0 0.316421 99.3992 -0.660465 89.332169 2.335912 91.420891 -2.799227 0.574348 0.101968 -11.949784 -0.459185 0.112701 16.428787 -0.987906 -2.666683 20.42942 -1.747784 2.444399 -2.561578 -0.556979 0.566769 -33.286194 0.971433 -1.847585 5e-06 -0.0 0.0 0.074014 0.005405 -0.002578 0.185114 -0.032523 -0.017706 0.165483 0.04005 0.019562 -141.919617 -75.417908 159.167892 28.078856 -40.0742 -42.584961 72.440422 1.215309 -0.624908 -9.221886 14.057548 -91.238953 17.636623 -26.322718 52.411171 -19.466656 -14.395594 29.410378 -1e-06 -8.774819 -1e-06 16.20129 -17.611849 6.042746 -0.609776 -1.795654 -3.889326 -4.807087 -11.046807 -2.937851 6e-06 -20.976015 -2e-06 -5.01997 -25.033548 -4.03188 8e-06 -2e-06 2e-06 -10.634529 -5.686969 -3.565586 10.573269 -17.922947 -3.1139 2e-06 -13.821205 -1e-06 -0.501773 -31.181498 -4.027019 -11.038659 -59.076477 6.913857 -13.982705 -7.150195 -2.87504 13.772724 -8.40149 -3.218242 0.347732 -34.211544 0.771652 -0.963027 -17.73337 2.621021 -1e-06 -0.0 -1e-06 -17.346413 -20.095215 -4.201779 21.757555 -1.638374 3.866426 1e-06 -6.338822 -1e-06 -1.697584 -22.591738 -6.194008 -2e-06 -3e-06 -3e-06 49.266228 -82.102905 148.648331 32.806225 -48.615292 -62.139702 72.248672 -1.501977 0.324019 -3.728633 20.904865 -87.401314 22.182119 -20.375887 49.9333 -16.701811 -16.743528 28.476522 -3e-06 -12.690601 -3e-06 15.027493 -17.431524 4.074877 -0.105918 -1.513856 -4.275881 -5.039043 -5.612872 -2.953556 7e-06 -11.02052 -3e-06 -6.111301 -15.895332 -3.840469 2e-06 -2e-06 -1e-06 -10.283373 -5.680288 -4.341836 11.028292 -11.302402 -2.372632 -1.384272 -14.238578 -6.32012 -0.62544 -26.924183 -3.8276 -5.099296 -49.699715 -2.144332 -13.708527 -7.363478 -3.720937 18.141148 -14.052738 -3.242675 5e-06 -18.787262 -4e-06 -0.429712 -8.456043 2.555502 0.0 1e-06 -1e-06 -15.923536 -20.094482 -5.473583 30.41921 -7.190824 1.73593 3e-06 -8.162921 -2e-06 -1.861902 -22.861464 -6.167942 0.0 -2e-06 -1e-06 173.119919 -5.613715 -10.081779 21.590117 0.001152 0.070955 -80.972397 4.191145 -2.879225 -6.947979 1.580444 2.118952 -0.999999 1e-06 0.0 -3.947284 -3.610537 -10.718882 19.111258 -0.047413 0.065036 -80.881004 -4.33107 -6.217025 -7.45583 0.703893 1.629328 -1.000002 -0.0 -0.0 
0.0 0.0 0.0 0.0 -0.0 0.0 0.340919 99.395775 -0.70293 89.349045 2.297726 91.417801 -2.771714 0.562242 0.085027 -11.958858 -0.453581 0.127064 16.385843 -0.986112 -2.665649 20.363642 -1.7482 2.434165 -2.554599 -0.577765 0.5685 -33.225853 0.963946 -1.893726 6e-06 -0.0 -0.0 0.073193 0.010191 0.012714 0.193409 -0.027908 -0.003227 0.17206 0.045202 0.035519 -142.031464 -75.462677 159.240372 28.082182 -40.03894 -42.576702 72.542091 1.239518 -0.595673 -9.236066 13.939368 -90.910927 17.636633 -26.322716 52.411179 -19.466665 -14.395597 29.410385 -1e-06 -8.774821 -1e-06 16.178267 -17.6439 6.057027 -0.609777 -1.795655 -3.889327 -4.807087 -11.04681 -2.937852 6e-06 -20.976015 -2e-06 -5.019968 -25.033556 -4.031886 6e-06 -1e-06 1e-06 -10.634534 -5.686972 -3.565588 10.573272 -17.922951 -3.113903 4e-06 -13.821211 -1e-06 -0.501775 -31.181501 -4.027018 -11.038395 -59.020573 6.920203 -13.982714 -7.150198 -2.875043 13.77273 -8.401493 -3.218241 0.347735 -34.211555 0.771651 -0.963026 -17.73337 2.621019 -1e-06 1e-06 -1e-06 -17.346418 -20.095219 -4.201784 21.757559 -1.638375 3.866427 2e-06 -6.338824 -1e-06 -1.697586 -22.591745 -6.194011 -1e-06 -5e-06 -2e-06 49.625427 -82.215988 148.275558 32.985149 -48.537704 -62.355064 72.376282 -1.463459 0.355955 -3.871811 20.985565 -87.447044 22.182114 -20.375891 49.9333 -16.701811 -16.743528 28.476526 -4e-06 -12.6906 -2e-06 15.002103 -17.426384 4.07851 -0.10592 -1.513857 -4.275879 -5.039042 -5.612872 -2.953557 4e-06 -11.02052 -2e-06 -6.111296 -15.89533 -3.84047 1e-06 -1e-06 -0.0 -10.283365 -5.680287 -4.341839 11.028292 -11.302405 -2.372632 -1.384271 -14.238577 -6.320121 -0.625438 -26.924185 -3.8276 -5.072457 -49.662254 -2.161239 -13.708524 -7.363475 -3.720937 18.141146 -14.052739 -3.242672 5e-06 -18.787266 -1e-06 -0.42971 -8.456043 2.555502 0.0 -1e-06 -1e-06 -15.923534 -20.094482 -5.473581 30.41921 -7.190825 1.735927 2e-06 -8.162921 -1e-06 -1.861902 -22.861467 -6.167941 -0.0 -3e-06 -2e-06 173.043533 -5.594606 -10.092652 21.623905 -0.00393 0.075902 -80.961494 4.201723 -2.869461 -6.954494 1.573141 2.114825 -1.0 -0.0 -0.0 -4.043079 -3.656709 -10.73333 19.189798 -0.042747 0.05516 -80.894524 -4.299293 -6.216969 -7.45212 0.699577 1.624577 -1.000002 1e-06 -0.0 
0.0 0.0 0.0 0.0 -0.0 0.0 0.360198 99.394211 -0.736236 89.368469 2.256791 91.404251 -2.74597 0.544671 0.059186 -11.960402 -0.456526 0.131875 16.323128 -0.994909 -2.65477 20.250668 -1.738264 2.430397 -2.563003 -0.58529 0.579399 -33.152138 0.968937 -1.9115 6e-06 -0.0 -0.0 0.071829 0.011568 0.017966 0.191261 -0.023572 0.001463 0.170188 0.043707 0.040774 -142.053726 -75.52169 159.242599 28.086706 -40.014797 -42.570641 72.63121 1.293148 -0.5881 -9.187432 13.894095 -90.57357 17.636627 -26.322725 52.411186 -19.466658 -14.395598 29.410385 -1e-06 -8.774822 -2e-06 16.163765 -17.6905 6.067652 -0.609779 -1.795653 -3.889327 -4.807087 -11.046811 -2.93785 3e-06 -20.976015 1e-06 -5.019969 -25.033554 -4.031882 5e-06 -1e-06 1e-06 -10.634533 -5.68697 -3.565588 10.573272 -17.922949 -3.1139 3e-06 -13.821206 -0.0 -0.501781 -31.181498 -4.027013 -11.042379 -58.982494 6.931828 -13.982715 -7.150198 -2.875041 13.772731 -8.40149 -3.218241 0.347731 -34.211552 0.771653 -0.963028 -17.73337 2.62102 -2e-06 2e-06 -1e-06 -17.346416 -20.095217 -4.201783 21.757555 -1.638376 3.866428 1e-06 -6.338823 1e-06 -1.697591 -22.591743 -6.194006 -2e-06 -3e-06 -0.0 49.720478 -82.335968 148.135239 33.125641 -48.51075 -62.575249 72.521179 -1.458171 0.384253 -3.957557 21.073261 -87.334656 22.182114 -20.375895 49.933319 -16.701807 -16.74353 28.47653 -3e-06 -12.690598 -3e-06 14.974193 -17.434738 4.069852 -0.105917 -1.513856 -4.27588 -5.039038 -5.612871 -2.953557 4e-06 -11.020523 -1e-06 -6.111299 -15.89533 -3.840469 1e-06 -1e-06 0.0 -10.28337 -5.680288 -4.341838 11.028289 -11.302405 -2.372629 -1.38427 -14.238578 -6.320121 -0.625438 -26.924189 -3.827601 -5.028883 -49.566624 -2.193078 -13.708522 -7.363475 -3.720938 18.141146 -14.052739 -3.242671 5e-06 -18.78727 -1e-06 -0.429709 -8.456043 2.555502 0.0 -1e-06 -1e-06 -15.923536 -20.094482 -5.473583 30.419207 -7.190826 1.735928 1e-06 -8.162926 -1e-06 -1.861902 -22.861469 -6.167942 0.0 -4e-06 -2e-06 172.981842 -5.577675 -10.115211 21.637707 -0.006785 0.074585 -80.945976 4.21228 -2.890111 -6.965451 1.556684 2.110846 -1.0 -0.0 -0.0 -4.134631 -3.697842 -10.746656 19.257154 -0.039639 0.042323 -80.908554 -4.252059 -6.206889 -7.429927 0.690686 1.620189 -1.000002 -0.0 -0.0 
